<svg width="170" height="170" viewBox="0 0 170 170" fill="none" xmlns="http://www.w3.org/2000/svg">
<path fill-rule="evenodd" clip-rule="evenodd" d="M10.8627 29.3971C37.0889 17.5049 68.2244 10.8627 98.9006 10.8627C108.847 10.8627 118.639 11.3264 128.186 12.902C131.921 13.5204 136.772 14.9107 138.871 16.5148C141.808 18.7714 143.692 22.322 143.692 26.3079C143.692 29.9816 142.088 33.319 139.524 35.5756H140.603C147.43 35.5756 152.959 41.105 152.959 47.9312C152.959 54.758 147.43 60.2875 140.603 60.2875H146.782C153.609 60.2875 159.138 65.8179 159.138 72.6444C159.138 79.4713 153.609 85.0003 146.782 85.0003C153.609 85.0003 159.138 90.5301 159.138 97.3566C159.138 104.183 153.609 109.713 146.782 109.713H91.3658C87.0992 109.713 83.6427 113.173 83.6427 117.436L87.5306 143.107C87.9026 144.278 88.0896 145.515 88.0896 146.782C88.0896 153.608 82.5598 159.137 75.7333 159.137C70.0199 159.137 65.1987 155.246 63.8081 149.994L63.2832 148.233C55.3459 122.965 37.367 99.8872 10.8627 85V29.3971Z" fill="white"/>
</svg>
