<svg width="170" height="170" viewBox="0 0 170 170" fill="none" xmlns="http://www.w3.org/2000/svg">
<path fill-rule="evenodd" clip-rule="evenodd" d="M10.8627 140.603C37.0889 152.495 68.2244 159.137 98.9006 159.137C108.847 159.137 118.639 158.674 128.186 157.098C131.921 156.48 136.772 155.089 138.871 153.485C141.808 151.229 143.693 147.678 143.693 143.692C143.693 140.018 142.088 136.681 139.524 134.424H140.603C147.43 134.424 152.959 128.895 152.959 122.069C152.959 115.242 147.43 109.713 140.603 109.713H146.782C153.609 109.713 159.138 104.182 159.138 97.3556C159.138 90.5287 153.609 84.9997 146.782 84.9997C153.609 84.9997 159.138 79.4699 159.138 72.6434C159.138 65.8165 153.609 60.2874 146.782 60.2874H91.3658C87.0992 60.2874 83.6427 56.8273 83.6427 52.5643L87.5306 26.8926C87.9026 25.7224 88.0896 24.4855 88.0896 23.2183C88.0896 16.3921 82.5598 10.8627 75.7333 10.8627C70.0199 10.8627 65.1987 14.754 63.8081 20.0056L63.2832 21.7675C55.3459 47.0349 37.367 70.1128 10.8627 85V140.603Z" fill="white"/>
</svg>
